<svg width="331" height="259" viewBox="0 0 331 259" fill="none" xmlns="http://www.w3.org/2000/svg">
<g style="mix-blend-mode:multiply" opacity="0.36" filter="url(#filter0_i_26_1436)">
<path fill-rule="evenodd" clip-rule="evenodd" d="M272.732 -49.9999C256.164 -49.9999 242.732 -36.5684 242.732 -19.9999V258.932H330.998V-19.9999C330.998 -36.5684 317.567 -49.9999 300.998 -49.9999H272.732ZM184.466 16.1999C167.897 16.1999 154.466 29.6314 154.466 46.1999V90.3024C154.449 73.7479 141.024 60.333 124.466 60.333H96.1996C79.6311 60.333 66.1996 73.7644 66.1996 90.333V145.462C66.1794 128.911 52.7557 115.499 36.1997 115.499H30C13.4315 115.499 0 128.931 0 145.499V258.932H66.1996L154.466 258.932H242.732V46.1999C242.732 29.6314 229.301 16.1999 212.732 16.1999H184.466Z" fill="white"/>
</g>
<defs>
<filter id="filter0_i_26_1436" x="0" y="-49.9999" width="342.998" height="320.932" filterUnits="userSpaceOnUse" color-interpolation-filters="sRGB">
<feFlood flood-opacity="0" result="BackgroundImageFix"/>
<feBlend mode="normal" in="SourceGraphic" in2="BackgroundImageFix" result="shape"/>
<feColorMatrix in="SourceAlpha" type="matrix" values="0 0 0 0 0 0 0 0 0 0 0 0 0 0 0 0 0 0 127 0" result="hardAlpha"/>
<feOffset dx="12" dy="12"/>
<feGaussianBlur stdDeviation="6.5"/>
<feComposite in2="hardAlpha" operator="arithmetic" k2="-1" k3="1"/>
<feColorMatrix type="matrix" values="0 0 0 0 0.678431 0 0 0 0 0.380392 0 0 0 0 1 0 0 0 0.5 0"/>
<feBlend mode="normal" in2="shape" result="effect1_innerShadow_26_1436"/>
</filter>
</defs>
</svg>
