<svg width="195.000000" height="275.000000" viewBox="0 0 195 275" fill="none" xmlns="http://www.w3.org/2000/svg" xmlns:xlink="http://www.w3.org/1999/xlink">
	<desc>
			Created with Pixso.
	</desc>
	<defs/>
	<path id="Vector 3837" d="M94.02 273.6L115.47 172.47C125.16 169.56 147.14 148.77 159.75 121.27C175.52 86.89 176.6 59.68 173.02 57.09C167.26 52.92 164.27 61.15 159.23 75.02C155.8 84.45 151.43 96.49 144.59 109.01C150.97 95.66 167.5 41.81 159.65 33.96C149.84 24.14 136.19 71.05 129.68 93.42C129.01 95.73 128.41 97.77 127.9 99.47C128.39 97.41 129.08 94.73 129.88 91.59L130.04 90.96C136.24 66.66 149.02 16.64 135.42 15.15C126.42 14.17 116.91 54.01 111.12 78.25C110.49 80.91 109.9 83.38 109.36 85.59C111.65 74.1 110.72 59.7 97.67 54.51C78.59 46.92 69.34 78.9 78.56 82.75C82.02 84.2 86.74 80.99 90.15 76.77C91.2 81.62 90.09 95.95 77.28 114.53C75.66 114.36 73.98 114.31 72.22 114.38C75.07 109.92 79.15 96.87 79.55 90.26C80.06 82 65.81 76.04 51.43 110.4C43.78 128.66 58.34 145.34 68.24 154.47L29.66 246.66L94.02 273.6Z" fill="#E9D4FF" fill-opacity="1.000000" fill-rule="evenodd"/>
	<path id="Vector 3833" d="M94.02 273.6L115.47 172.47C125.16 169.56 147.14 148.77 159.75 121.27C175.52 86.89 176.6 59.68 173.02 57.09C163.35 50.08 161.48 78.07 144.59 109.01C150.97 95.66 167.5 41.81 159.65 33.96C148.82 23.13 133.33 81.32 127.9 99.47C132.14 81.67 150.93 16.85 135.42 15.15C124.49 13.96 112.81 72.93 107.96 91.12C111.61 79.25 112.94 60.58 97.67 54.51C78.59 46.92 69.34 78.9 78.56 82.75C84.26 85.14 93.34 74.89 94.45 68.33M103.51 148.35C104.01 131 93.45 113.53 72.22 114.38C75.07 109.92 79.15 96.87 79.55 90.26C80.06 82 65.81 76.04 51.43 110.4C43.78 128.66 58.34 145.34 68.24 154.47L29.66 " stroke="#271A58" stroke-opacity="1.000000" stroke-width="1.000000"/>
	<path id="Vector 3836" d="M77.84 85.41C74.79 89.58 67 97.1 60.33 " stroke="#271A58" stroke-opacity="1.000000" stroke-width="1.000000"/>
	<path id="Vector 3835" d="M77.08 65.59C79.42 67.83 82.89 74.36 78.05 " stroke="#271A58" stroke-opacity="1.000000" stroke-width="1.000000"/>
	<path id="Vector 3834" d="M90.4 76.68C90.37 82.77 90.75 93.17 77.21 " stroke="#271A58" stroke-opacity="1.000000" stroke-width="1.000000"/>
</svg>
