<svg width="245.000000" height="202.000000" viewBox="0 0 245 202" fill="none" xmlns="http://www.w3.org/2000/svg" xmlns:xlink="http://www.w3.org/1999/xlink">
	<desc>
			Created with Pixso.
	</desc>
	<defs/>
	<mask id="mask_26_1246" fill="white">
		<path id="Union" d="M102.23 174.038C116.339 177.819 130.839 169.486 134.689 155.415C130.988 169.526 139.38 183.993 153.489 187.773C167.643 191.566 182.193 183.166 185.986 169.011L186.681 166.415C189.51 155.858 201.24 150.189 210.911 145.096C217.325 141.718 222.365 135.778 224.39 128.223C226.414 120.669 225.019 113.004 221.153 106.872C215.324 97.6263 208 86.8518 210.829 76.2947L211.524 73.7009C215.317 59.5461 206.917 44.9967 192.762 41.2039C178.653 37.4236 164.153 45.7561 160.302 59.8265C164.003 45.7157 155.612 31.2491 141.503 27.4689C127.348 23.676 112.799 32.0762 109.006 46.2311L103.212 67.855L109.006 46.2311C112.799 32.0762 104.396 17.5272 90.2415 13.7344C76.0867 9.94165 61.5371 18.3418 57.7444 32.4966L57.0474 35.0978C54.2195 45.6517 42.4956 51.3206 32.8286 56.413C26.4158 59.791 21.3762 65.7308 19.3523 73.2839C17.3286 80.837 18.7231 88.5009 22.5876 94.6327C28.4133 103.876 35.7322 114.648 32.9043 125.202L32.2061 127.807C28.4133 141.962 36.8135 156.511 50.9683 160.304C65.123 164.097 79.6726 155.697 83.4653 141.542L89.2603 119.915L83.4653 141.542C79.6726 155.697 88.0752 170.246 102.23 174.038Z" clip-rule="evenodd" fill="" fill-opacity="1.000000" fill-rule="evenodd"/>
	</mask>
	<path id="Union" d="M102.23 174.038C116.339 177.819 130.839 169.486 134.689 155.415C130.988 169.526 139.38 183.993 153.489 187.773C167.643 191.566 182.193 183.166 185.986 169.011L186.681 166.415C189.51 155.858 201.24 150.189 210.911 145.096C217.325 141.718 222.365 135.778 224.39 128.223C226.414 120.669 225.019 113.004 221.153 106.872C215.324 97.6263 208 86.8518 210.829 76.2947L211.524 73.7009C215.317 59.5461 206.917 44.9967 192.762 41.2039C178.653 37.4236 164.153 45.7561 160.302 59.8265C164.003 45.7157 155.612 31.2491 141.503 27.4689C127.348 23.676 112.799 32.0762 109.006 46.2311L103.212 67.855L109.006 46.2311C112.799 32.0762 104.396 17.5272 90.2415 13.7344C76.0867 9.94165 61.5371 18.3418 57.7444 32.4966L57.0474 35.0978C54.2195 45.6517 42.4956 51.3206 32.8286 56.413C26.4158 59.791 21.3762 65.7308 19.3523 73.2839C17.3286 80.837 18.7231 88.5009 22.5876 94.6327C28.4133 103.876 35.7322 114.648 32.9043 125.202L32.2061 127.807C28.4133 141.962 36.8135 156.511 50.9683 160.304C65.123 164.097 79.6726 155.697 83.4653 141.542L89.2603 119.915L83.4653 141.542C79.6726 155.697 88.0752 170.246 102.23 174.038Z" clip-rule="evenodd" fill="#271A58" fill-opacity="1.000000" fill-rule="evenodd" mask="url(#mask_26_1246)"/>
	<path id="Union" d="M91.6723 171.117Q96.0041 174.441 101.712 175.97Q107.401 177.494 112.799 176.791Q118.196 176.087 123.302 173.155Q128.412 170.222 131.743 165.913Q131.847 165.779 131.949 165.644Q131.969 165.813 131.992 165.98Q132.722 171.377 135.681 176.473Q138.638 181.565 142.96 184.873Q147.283 188.181 152.971 189.705Q158.679 191.235 164.093 190.522Q169.505 189.809 174.623 186.855Q179.741 183.9 183.064 179.569Q186.388 175.237 187.917 169.529L188.613 166.932Q190.221 160.93 196.794 155.793Q200.837 152.634 210.374 147.636Q211.354 147.123 211.843 146.866Q217.453 143.911 221.075 139.371Q224.686 134.844 226.321 128.741Q227.957 122.638 227.093 116.913Q226.226 111.169 222.844 105.805Q222.552 105.341 221.958 104.403Q216.198 95.3069 214.276 90.5493Q211.152 82.8151 212.761 76.8124L213.456 74.2186Q214.985 68.5102 214.272 63.097Q213.56 57.6843 210.605 52.5667Q207.65 47.4487 203.319 44.125Q198.987 40.8015 193.279 39.272Q187.591 37.7479 182.194 38.4516Q176.796 39.1554 171.69 42.0867Q166.58 45.0197 163.249 49.3281Q163.145 49.4628 163.043 49.5987Q163.022 49.4297 163 49.2612Q162.269 43.8646 159.311 38.7694Q156.354 33.678 152.032 30.37Q147.709 27.0613 142.021 25.537Q136.313 24.0075 130.9 24.7201Q125.487 25.4327 120.369 28.3875Q115.251 31.3422 111.928 35.6735Q111.856 35.7673 111.784 35.862Q111.77 35.7462 111.755 35.6304Q111.042 30.216 108.086 25.0968Q105.131 19.9791 100.799 16.6555Q96.4672 13.3321 90.759 11.8026Q85.051 10.2731 79.6381 10.9857Q74.2251 11.6983 69.1072 14.6531Q63.9895 17.6078 60.6658 21.9392Q57.3421 26.2707 55.8125 31.979L55.1155 34.5802Q53.5073 40.5818 46.9373 45.7174Q42.8958 48.8765 33.3618 53.874Q32.3804 54.3885 31.8965 54.6434Q26.2874 57.5981 22.6659 62.1383Q19.0556 66.6644 17.4207 72.7662Q15.7855 78.8683 16.6492 84.5935Q17.5154 90.3358 20.8955 95.699Q21.1873 96.1616 21.78 97.098Q27.5378 106.193 29.4583 110.95Q32.5806 118.682 30.9724 124.684L30.2742 127.289Q28.7448 132.997 29.4574 138.41Q30.17 143.823 33.1248 148.941Q36.0793 154.059 40.4105 157.382Q44.7422 160.706 50.4507 162.236Q56.1587 163.765 61.5715 163.053Q66.9846 162.34 72.1025 159.385Q77.2203 156.43 80.544 152.099Q80.6162 152.005 80.6872 151.911Q80.7014 152.027 80.7167 152.143Q81.4293 157.557 84.3853 162.676Q87.3406 167.794 91.6723 171.117ZM80.4909 148.5C74.5193 158.295 62.6103 163.423 50.9683 160.304C36.8135 156.511 28.4133 141.962 32.2061 127.807L32.9043 125.202C35.591 115.175 29.1189 104.951 23.47 96.0284C23.1731 95.5595 22.8785 95.0942 22.5876 94.6327C18.7231 88.5009 17.3286 80.837 19.3523 73.2839C21.3762 65.7308 26.4158 59.791 32.8286 56.413C42.4956 51.3206 54.2195 45.6517 57.0474 35.0978L57.7444 32.4966C61.5371 18.3418 76.0867 9.94165 90.2415 13.7344C101.883 16.8539 109.634 27.2496 109.909 38.7178C109.968 41.193 109.679 43.7183 109.006 46.2311C109.679 43.7183 110.692 41.3868 111.981 39.2727C117.952 29.478 129.861 24.3493 141.503 27.4689C153.146 30.5885 160.895 40.9858 161.169 52.4549C161.226 54.8837 160.949 57.3605 160.302 59.8265C160.975 57.3675 161.973 55.0837 163.238 53.0092C169.209 43.2136 181.119 38.0842 192.762 41.2039C206.917 44.9967 215.317 59.5461 211.524 73.7009L210.829 76.2947C208.141 86.3239 214.617 96.5494 220.269 105.474C220.566 105.944 220.861 106.41 221.153 106.872C225.019 113.004 226.414 120.669 224.39 128.223C222.365 135.778 217.325 141.718 210.911 145.096C201.24 150.189 189.51 155.858 186.681 166.415L185.986 169.011C182.193 183.166 167.643 191.566 153.489 187.773C141.846 184.654 134.096 174.257 133.823 162.788C133.765 160.359 134.043 157.881 134.689 155.415C134.016 157.874 133.018 160.158 131.753 162.233C125.782 172.029 113.873 177.158 102.23 174.038C90.588 170.919 82.8371 160.523 82.5624 149.055C82.5031 146.58 82.792 144.055 83.4653 141.542C82.792 144.055 81.7797 146.386 80.4909 148.5Z" clip-rule="evenodd" fill="#FF8071" fill-opacity="1.000000" fill-rule="evenodd"/>
	<path id="Измени своё тело за полгода" d="M69.64 77.62L77.2 66.16L80.01 66.96L75.89 81.38L74.12 80.87L77.72 68.28L70.16 79.74L67.35 78.94L71.47 64.52L73.24 65.02L69.64 77.62ZM179.02 96.83C178.85 97.44 178.22 97.81 177.59 97.63C176.97 97.45 176.62 96.81 176.79 96.19C176.97 95.58 177.61 95.22 178.23 95.4C178.86 95.58 179.2 96.21 179.02 96.83ZM182.87 97.93C182.69 98.54 182.07 98.91 181.43 98.73C180.82 98.55 180.46 97.91 180.64 97.29C180.81 96.68 181.46 96.32 182.07 96.49C182.71 96.68 183.04 97.31 182.87 97.93ZM82.16 78.66L82.57 77.22L84.09 77.65C85.15 77.96 85.83 77.67 86.08 76.83C86.31 76.02 85.83 75.28 84.5 74.9C83.1 74.5 82.11 74.97 81.76 76.2L79.84 75.65C80.38 73.76 82.23 72.59 84.94 73.36C87.5 74.09 88.39 75.7 87.97 77.2C87.7 78.14 86.98 78.83 85.92 78.97C86.89 79.64 87.26 80.54 86.95 81.61C86.44 83.42 84.72 84.11 82.09 83.36C79.39 82.59 78.19 80.83 78.84 78.55L80.77 79.09C80.39 80.4 80.96 81.4 82.54 81.85C84.04 82.28 84.81 81.83 85.05 81.01C85.31 80.1 84.78 79.41 83.68 79.1L82.16 78.66ZM112.27 86.58C112.2 86.81 112.12 87.02 112.04 87.23L104.5 85.07C104.26 86.81 105.05 88.1 106.67 88.56C107.84 88.9 108.76 88.6 109.39 87.84L111.47 88.43C110.31 90.24 108.32 90.86 106.11 90.23C103.38 89.45 101.97 86.82 102.81 83.88C103.65 80.94 106.24 79.45 108.97 80.23C111.7 81.01 113.11 83.64 112.27 86.58ZM150.21 96.37L148.21 95.8C148.43 94.28 147.49 93.16 146.1 92.76C144.47 92.29 142.87 93.23 142.31 95.17C141.76 97.12 142.62 98.76 144.25 99.22C145.66 99.62 147.1 99.1 147.75 97.56L149.74 98.13C148.87 100.63 146.36 101.74 143.75 100.99C141 100.21 139.55 97.57 140.39 94.62C141.23 91.68 143.86 90.21 146.61 90.99C149.14 91.72 150.66 93.9 150.21 96.37ZM171.48 103.51C170.64 106.46 167.98 107.92 165.19 107.12C162.4 106.33 160.91 103.67 161.75 100.73C162.59 97.79 165.26 96.33 168.05 97.12C170.83 97.92 172.32 100.57 171.48 103.51ZM182.22 106.59C182.16 106.82 182.08 107.02 182 107.23L174.46 105.07C174.21 106.81 175.01 108.1 176.62 108.56C177.8 108.9 178.71 108.6 179.35 107.84L181.42 108.44C180.26 110.25 178.27 110.87 176.06 110.23C173.33 109.45 171.92 106.82 172.76 103.88C173.6 100.94 176.19 99.45 178.92 100.23C181.65 101.01 183.06 103.64 182.22 106.59ZM99.89 79.26L94.82 86.79L92.66 86.18L92.37 77.11L89.99 85.41L88.22 84.91L90.97 75.29L94.22 76.22L94.34 84.83L98.99 77.59L102.18 78.5L99.43 88.11L97.51 87.56L99.89 79.26ZM115.95 88.53L114.81 92.51L112.89 91.96L115.64 82.35L117.56 82.9L116.45 86.78L121.07 88.1L122.18 84.22L124.1 84.77L121.35 94.38L119.43 93.83L120.57 89.85L115.95 88.53ZM135.49 88.02L132.74 97.64L130.9 97.11L133.09 89.44L126.49 95.85L124.05 95.15L126.8 85.54L128.65 86.07L126.45 93.74L133.05 87.33L135.49 88.02ZM155.51 104.15L150.59 102.74L153.33 93.12L158.1 94.49C159.87 94.99 160.85 96.17 160.37 97.84C160.08 98.86 159.39 99.37 158.47 99.48C159.42 100.13 159.88 101.09 159.53 102.3C159 104.15 157.51 104.72 155.51 104.15ZM158.46 97.52C158.71 96.66 158.32 96.13 157.13 95.79L154.76 95.11L154.05 97.61L156.41 98.29C157.61 98.63 158.23 98.33 158.46 97.52ZM110.57 85.31C110.8 83.63 110.02 82.36 108.48 81.92C106.93 81.48 105.61 82.14 104.92 83.69L110.57 85.31ZM180.53 105.31C180.76 103.63 179.98 102.37 178.44 101.93C176.88 101.48 175.57 102.15 174.88 103.69L180.53 105.31ZM163.67 101.28C163.12 103.22 164.02 104.88 165.69 105.35C167.37 105.83 169 104.91 169.56 102.96C170.11 101.02 169.21 99.37 167.54 98.89C165.87 98.41 164.23 99.34 163.67 101.28ZM157.62 101.69C157.88 100.81 157.46 100.17 156.38 99.86L153.63 99.08L152.85 101.81L155.6 102.59C156.68 102.9 157.37 102.58 157.62 101.69ZM67.46 92.49C67.39 92.72 67.31 92.93 67.23 93.13L59.69 90.98C59.45 92.72 60.24 94.01 61.86 94.47C63.03 94.8 63.95 94.5 64.58 93.75L66.66 94.34C65.49 96.15 63.51 96.77 61.3 96.14C58.57 95.36 57.15 92.73 58 89.79C58.84 86.84 61.42 85.36 64.16 86.14C66.89 86.92 68.3 89.55 67.46 92.49ZM89.13 98.69C88.29 101.63 85.62 103.09 82.83 102.3C80.04 101.5 78.56 98.85 79.4 95.91C80.24 92.96 82.9 91.5 85.69 92.3C88.48 93.09 89.97 95.75 89.13 98.69ZM97.61 101.8L98.02 100.36L99.54 100.79C100.6 101.09 101.28 100.81 101.52 99.97C101.76 99.16 101.28 98.42 99.95 98.04C98.55 97.64 97.56 98.1 97.21 99.34L95.29 98.79C95.83 96.9 97.68 95.73 100.39 96.5C102.95 97.23 103.84 98.84 103.41 100.34C103.14 101.28 102.43 101.97 101.37 102.11C102.34 102.78 102.71 103.67 102.4 104.75C101.89 106.56 100.17 107.25 97.53 106.5C94.84 105.73 93.64 103.97 94.29 101.68L96.22 102.23C95.84 103.54 96.41 104.54 97.99 104.99C99.49 105.42 100.26 104.97 100.5 104.14C100.75 103.24 100.22 102.55 99.13 102.23L97.61 101.8ZM110.08 108.13C109.08 109.22 107.69 109.41 106.31 109.01C104.6 108.52 103.28 107.25 103.82 105.34C105.01 101.19 110.9 105.12 111.52 102.93C111.79 101.99 111.04 101.21 109.86 100.87C108.61 100.52 107.57 100.9 107.21 102.15L105.21 101.58C105.92 99.1 108.19 98.73 110.3 99.33C112.38 99.93 114.06 101.32 113.42 103.56L111.5 110.29L109.61 109.75L110.08 108.13ZM139.62 113.13C138.78 116.07 136.11 117.53 133.33 116.73C130.54 115.94 129.05 113.29 129.89 110.34C130.73 107.4 133.4 105.94 136.19 106.74C138.97 107.53 140.46 110.18 139.62 113.13ZM169.08 121.55C168.24 124.49 165.58 125.96 162.79 125.16C160 124.36 158.51 121.71 159.35 118.77C160.2 115.83 162.86 114.36 165.65 115.16C168.44 115.96 169.93 118.61 169.08 121.55ZM187.59 130.29C186.59 131.38 185.2 131.57 183.82 131.17C182.11 130.68 180.79 129.41 181.33 127.51C182.52 123.35 188.41 127.28 189.03 125.09C189.3 124.15 188.55 123.37 187.37 123.04C186.12 122.68 185.08 123.07 184.72 124.32L182.72 123.74C183.43 121.26 185.7 120.89 187.81 121.5C189.89 122.09 191.57 123.49 190.93 125.72L189.01 132.45L187.12 131.91L187.59 130.29ZM54.97 85.63L52.72 93.48L50.8 92.93L53.04 85.08L49.93 84.19L50.44 82.42L58.59 84.76L58.08 86.52L54.97 85.63ZM78.79 90.53L76.04 100.15L74.12 99.6L76.36 91.75L72.92 90.77C72.23 93 71.7 94.5 71.25 95.49C70.16 97.78 69.13 98.17 67.6 97.73L67.25 97.63L67.76 95.86L67.91 95.91C68.43 96.06 68.94 95.87 69.34 95.19C69.81 94.43 70.42 92.82 71.67 88.5L78.79 90.53ZM122.48 104.94L120.23 112.78L118.31 112.23L121.06 102.62L129.25 104.96L126.5 114.58L124.58 114.03L126.82 106.18L122.48 104.94ZM150.95 111.16L148.2 120.78L146.27 120.23L148.52 112.38L145.07 111.4C144.39 113.64 143.86 115.13 143.41 116.12C142.32 118.41 141.29 118.8 139.75 118.36L139.41 118.27L139.91 116.5L140.07 116.54C140.59 116.69 141.1 116.5 141.5 115.83C141.97 115.07 142.57 113.45 143.83 109.13L150.95 111.16ZM155.06 114.25L152.81 122.1L150.89 121.55L153.64 111.93L159.97 113.74L159.46 115.51L155.06 114.25ZM167.88 129.22L169.13 124.85L170.07 125.12C170.81 124.35 171.57 123.16 173.22 117.53L180.62 119.65L178.38 127.49L179.73 127.88L178.48 132.24L176.71 131.74L177.45 129.14L170.39 127.13L169.65 129.72L167.88 129.22ZM65.76 91.22C65.99 89.54 65.21 88.27 63.67 87.83C62.11 87.39 60.8 88.05 60.11 89.6L65.76 91.22ZM81.32 96.46C80.76 98.4 81.66 100.05 83.34 100.53C85.01 101.01 86.65 100.08 87.2 98.14C87.76 96.2 86.86 94.54 85.19 94.07C83.51 93.59 81.87 94.51 81.32 96.46ZM131.81 110.89C131.26 112.84 132.16 114.49 133.83 114.97C135.5 115.44 137.14 114.52 137.7 112.58C138.25 110.63 137.35 108.98 135.68 108.5C134.01 108.03 132.37 108.95 131.81 110.89ZM161.28 119.32C160.72 121.26 161.62 122.91 163.3 123.39C164.97 123.87 166.61 122.94 167.16 121C167.72 119.06 166.82 117.41 165.14 116.93C163.47 116.45 161.83 117.38 161.28 119.32ZM174.46 119.8C173.95 121.53 173.53 122.7 173.17 123.53C172.7 124.6 172.34 125.25 172.01 125.67L176.46 126.95L178.19 120.87L174.46 119.8ZM110.95 105.09C109.09 105.41 106.28 104.17 105.82 105.79C105.58 106.62 106.18 107.22 107.16 107.5C108.64 107.93 110.27 107.46 110.75 105.79L110.95 105.09ZM188.46 127.26C186.6 127.58 183.79 126.34 183.33 127.95C183.09 128.78 183.69 129.39 184.67 129.67C186.15 130.09 187.78 129.62 188.26 127.95L188.46 127.26Z" fill="#FF8071" fill-opacity="1.000000" fill-rule="evenodd"/>
</svg>
