<svg width="170.000000" height="50.000000" viewBox="0 0 170 50" fill="none" xmlns="http://www.w3.org/2000/svg" xmlns:xlink="http://www.w3.org/1999/xlink">
	<desc>
			Created with Pixso.
	</desc>
	<defs/>
	<path id="Text" d="M75.29 27.97L75.29 27.01L77.69 27.01L77.69 27.97C77.69 32.08 75.7 34.12 72.39 34.12C69.08 34.12 67.09 32.08 67.09 27.97L67.09 21.78C67.09 17.68 69.08 15.64 72.39 15.64C75.7 15.64 77.69 17.68 77.69 21.78L77.69 22.5L75.29 22.5L75.29 21.78C75.29 18.9 74.21 17.84 72.39 17.84C70.59 17.84 69.49 18.9 69.49 21.78L69.49 27.97C69.49 30.85 70.57 31.91 72.39 31.91C74.19 31.91 75.29 30.85 75.29 27.97ZM137.76 17.77C138.72 17.77 139.46 17.22 139.46 15.88L141.38 15.88C141.38 18.13 139.92 19.48 137.76 19.48C135.62 19.48 134.16 18.13 134.16 15.88L136.08 15.88C136.08 17.22 136.87 17.77 137.76 17.77ZM91.83 27.88C91.83 28.16 91.81 28.43 91.79 28.69L82.38 28.69C82.67 30.78 84.01 32 86.03 32C87.49 32 88.45 31.36 88.93 30.28L91.52 30.28C90.78 32.75 88.69 34.12 85.93 34.12C82.52 34.12 80.03 31.55 80.03 27.88C80.03 24.2 82.52 21.64 85.93 21.64C89.34 21.64 91.83 24.2 91.83 27.88ZM96.81 32.08L96.81 39.88L94.41 39.88L94.41 21.88L96.81 21.88L96.81 23.68C97.74 22.4 99.13 21.64 100.74 21.64C104.03 21.64 106.5 24.2 106.5 27.88C106.5 31.55 104.03 34.12 100.74 34.12C99.13 34.12 97.74 33.35 96.81 32.08ZM129.81 27.88C129.81 28.16 129.78 28.43 129.76 28.69L120.35 28.69C120.64 30.78 121.98 32 124 32C125.46 32 126.42 31.36 126.9 30.28L129.5 30.28C128.75 32.75 126.66 34.12 123.9 34.12C120.5 34.12 118 31.55 118 27.88C118 24.2 120.5 21.64 123.9 21.64C127.31 21.64 129.81 24.2 129.81 27.88ZM111.47 24.08L111.47 33.88L109.07 33.88L109.07 21.88L116.97 21.88L116.97 24.08L111.47 24.08ZM143.23 21.88L143.23 33.88L140.92 33.88L140.92 24.3L135.43 33.88L132.38 33.88L132.38 21.88L134.68 21.88L134.68 31.45L140.18 21.88L143.23 21.88ZM89.46 26.96C89.17 24.95 87.85 23.75 85.93 23.75C83.99 23.75 82.69 24.95 82.4 26.96L89.46 26.96ZM127.43 26.96C127.14 24.95 125.82 23.75 123.9 23.75C121.96 23.75 120.66 24.95 120.38 26.96L127.43 26.96ZM96.81 27.88C96.81 30.3 98.37 31.91 100.46 31.91C102.54 31.91 104.1 30.3 104.1 27.88C104.1 25.45 102.54 23.84 100.46 23.84C98.37 23.84 96.81 25.45 96.81 27.88Z" fill="#000000" fill-opacity="1.000000" fill-rule="evenodd"/>
	<circle id="Ellipse 376" cx="25.000000" cy="25.000000" r="25.000000" fill="#D9D9D9" fill-opacity="1.000000"/>
	<path id="Rectangle 3765" d="M169.06 24.74L162.67 31.12L156.29 24.74L157.7 23.32L163.38 29L162.67 29.71L161.97 29L167.64 23.32L169.06 24.74Z" fill="#000000" fill-opacity="1.000000" fill-rule="evenodd"/>
</svg>
